<?xml version="1.0"?>
<svg xmlns="http://www.w3.org/2000/svg" xmlns:xlink="http://www.w3.org/1999/xlink" version="1.1" viewBox="0 0 224 224" width="50px" height="50px"><g fill="none" fill-rule="nonzero" stroke="none" stroke-width="1" stroke-linecap="butt" stroke-linejoin="miter" stroke-miterlimit="10" stroke-dasharray="" stroke-dashoffset="0" font-family="none" font-weight="none" font-size="none" text-anchor="none" style="mix-blend-mode: normal"><path d="M0,224v-224h224v224z" fill="none"/><g fill="#ffffff"><g id="surface1"><path d="M112,13.44c-29.7325,0 -53.76,24.0275 -53.76,53.76v22.4h-17.92c-7.3675,0 -13.44,6.0725 -13.44,13.44v107.52c0,7.3675 6.0725,13.44 13.44,13.44h143.36c7.3675,0 13.44,-6.0725 13.44,-13.44v-107.52c0,-7.3675 -6.0725,-13.44 -13.44,-13.44h-17.92v-22.4c0,-29.7325 -24.0275,-53.76 -53.76,-53.76zM112,22.4c24.9375,0 44.8,19.8625 44.8,44.8v22.4h-89.6v-22.4c0,-24.9375 19.8625,-44.8 44.8,-44.8zM40.32,98.56h143.36c2.485,0 4.48,1.995 4.48,4.48v107.52c0,2.485 -1.995,4.48 -4.48,4.48h-143.36c-2.485,0 -4.48,-1.995 -4.48,-4.48v-107.52c0,-2.485 1.995,-4.48 4.48,-4.48zM112,134.4c-7.6125,0 -13.44,5.8275 -13.44,13.44c0,4.025 1.785,7.56 4.48,9.8v12.6c0,4.935 4.025,8.96 8.96,8.96c4.935,0 8.96,-4.025 8.96,-8.96v-12.6c2.695,-2.24 4.48,-5.775 4.48,-9.8c0,-7.6125 -5.8275,-13.44 -13.44,-13.44z"/></g></g></g></svg>
